<?xml version="1.0" encoding="UTF-8"?>
<svg width="148px" height="32px" viewBox="0 0 148 32" version="1.1" xmlns="http://www.w3.org/2000/svg" xmlns:xlink="http://www.w3.org/1999/xlink">
    <!-- Generator: sketchtool 41 (35326) - http://www.bohemiancoding.com/sketch -->
    <title>B0F8197B-18C1-4746-AEFC-84B07622FFC7</title>
    <desc>Created with sketchtool.</desc>
    <defs>
        <path d="M4.6862915,27.3137085 C10.9346802,33.5620972 21.0653198,33.5620972 27.3137085,27.3137085 C33.5620972,21.0653198 33.5620972,10.9346802 27.3137085,4.6862915 C21.0653198,-1.56209717 10.9346802,-1.56209717 4.6862915,4.6862915 C-1.56209717,10.9346802 -1.56209717,21.0653198 4.6862915,27.3137085 Z" id="path-1"></path>
        <mask id="mask-2" maskContentUnits="userSpaceOnUse" maskUnits="objectBoundingBox" x="0" y="0" width="32" height="32" fill="white">
            <use xlink:href="#path-1"></use>
        </mask>
        <ellipse id="path-3" cx="15.7943298" cy="15.8331365" rx="9.16003085" ry="9.18253706"></ellipse>
        <mask id="mask-4" maskContentUnits="userSpaceOnUse" maskUnits="objectBoundingBox" x="0" y="0" width="18.3200617" height="18.3650741" fill="white">
            <use xlink:href="#path-3"></use>
        </mask>
        <path d="M27.3199997,4.6862915 C21.0701718,-1.56209717 10.9371988,-1.56209717 4.6873709,4.6862915 C-1.56245697,10.9346802 -1.56245697,21.0653198 4.6873709,27.3137085 C10.9371988,33.5620972 21.0701718,33.5620972 27.3199997,27.3137085" id="path-5"></path>
        <mask id="mask-6" maskContentUnits="userSpaceOnUse" maskUnits="objectBoundingBox" x="0" y="0" width="27.3199997" height="32" fill="white">
            <use xlink:href="#path-5"></use>
        </mask>
    </defs>
    <g id="Brand" stroke="none" stroke-width="1" fill="none" fill-rule="evenodd">
        <g id="brandAssets" transform="translate(-890.000000, -345.000000)">
            <g id="Group-9" transform="translate(890.000000, 345.000000)">
                <g id="Group-Copy">
                    <path d="M48.4022242,18.1893231 C48.501932,17.9751386 48.6016383,17.8252118 48.701346,17.739538 C48.8010538,17.6538642 48.9363694,17.611028 49.107297,17.611028 L49.7482723,17.611028 C49.9049559,17.611028 50.0402715,17.6645733 50.1542233,17.7716655 C50.268175,17.8787577 50.32515,18.0036968 50.32515,18.1464864 C50.32515,18.6319712 50.1328594,19.1531455 49.7482723,19.7100251 C49.3636852,20.2669046 48.8081789,20.7381034 48.0817366,21.1236354 C47.3552944,21.5091674 46.5006692,21.7019305 45.5178356,21.7019305 C44.506514,21.7019305 43.6305233,21.4877492 42.889837,21.0593804 C42.1491508,20.6310115 41.5794007,20.0420131 41.1805697,19.2923675 C40.7817386,18.5427219 40.5609605,17.7038454 40.5182286,16.7757128 C40.5039846,16.6043652 40.4968627,16.275954 40.4968627,15.7904693 C40.4968627,15.4477741 40.5039846,15.2050354 40.5182286,15.0622458 C40.6464243,13.6057915 41.1378337,12.4206553 41.9924717,11.5068017 C42.8471096,10.592948 44.0222192,10.1360281 45.5178356,10.1360281 C46.5006692,10.1360281 47.3517334,10.3252215 48.0710537,10.703614 C48.790374,11.0820066 49.3387584,11.5460659 49.7162235,12.095806 C50.0936886,12.6455461 50.2966621,13.1631507 50.32515,13.6486355 C50.339394,13.8057041 50.2859799,13.9413522 50.1649062,14.0555839 C50.0438325,14.1698156 49.9049559,14.2269306 49.7482723,14.2269306 L49.107297,14.2269306 C48.9363694,14.2269306 48.8010538,14.1840943 48.701346,14.0984206 C48.6016383,14.0127468 48.501932,13.8628199 48.4022242,13.6486355 C47.9036854,12.5348763 46.9422322,11.9780051 45.5178356,11.9780051 C44.7344175,11.9780051 44.0507174,12.242162 43.4667148,12.7704836 C42.8827122,13.2988053 42.547984,14.0984152 42.4625202,15.1693375 C42.4482762,15.3264061 42.4411544,15.5834235 42.4411544,15.9403976 C42.4411544,16.2688138 42.4482762,16.5115525 42.4625202,16.6686211 C42.562228,17.7395433 42.9005171,18.5391533 43.4773977,19.0674749 C44.0542783,19.5957966 44.7344175,19.8599534 45.5178356,19.8599534 C46.9422322,19.8599534 47.9036854,19.3030822 48.4022242,18.1893231 Z M61.2137172,11.592475 C62.096843,12.5634445 62.5383994,13.8842288 62.5383994,15.5548675 L62.5383994,16.1331627 C62.5383994,16.2902313 62.4814244,16.4258794 62.3674726,16.5401111 C62.2535209,16.6543428 62.1182053,16.7114578 61.9615216,16.7114578 L54.611672,16.7114578 L54.611672,16.8399678 C54.64016,17.7823794 54.9285959,18.5213046 55.4769886,19.0567658 C56.0253813,19.5922269 56.734008,19.8599534 57.6028899,19.8599534 C58.3150882,19.8599534 58.8670336,19.7671416 59.2587426,19.581515 C59.6504517,19.3958885 60.0029846,19.1317317 60.3163518,18.7890365 C60.4303035,18.6748048 60.5335707,18.5962717 60.6261565,18.5534348 C60.7187423,18.5105979 60.8433751,18.4891798 61.0000587,18.4891798 L61.641034,18.4891798 C61.8119616,18.4891798 61.9543991,18.5462948 62.0683508,18.6605265 C62.1823026,18.7747582 62.2321557,18.9104063 62.2179117,19.0674749 C62.1609359,19.4530069 61.9508405,19.8492422 61.5876194,20.2561927 C61.2243983,20.6631431 60.7045013,21.0058331 60.0279129,21.2842729 C59.3513246,21.5627127 58.5429916,21.7019305 57.6028899,21.7019305 C56.6912761,21.7019305 55.8793822,21.4913189 55.1671839,21.0700895 C54.4549856,20.6488601 53.8887965,20.0670011 53.4685995,19.324495 C53.0484025,18.5819889 52.7955759,17.7466821 52.7101121,16.8185495 C52.6816242,16.3901806 52.6673804,16.0617693 52.6673804,15.8333059 C52.6673804,15.6048425 52.6816242,15.2764313 52.7101121,14.8480624 C52.7955759,13.9627667 53.0484025,13.1631567 53.4685995,12.4492086 C53.8887965,11.7352604 54.4514247,11.1712498 55.156501,10.7571599 C55.8615773,10.3430699 56.6770321,10.1360281 57.6028899,10.1360281 C59.1269942,10.1360281 60.3305913,10.6215055 61.2137172,11.592475 Z M60.6154736,14.9123174 L60.6154736,14.8480624 C60.6154736,13.9770456 60.3412814,13.2809566 59.7928887,12.7597745 C59.244496,12.2385923 58.5145037,11.9780051 57.6028899,11.9780051 C56.7767399,11.9780051 56.0752351,12.242162 55.4983545,12.7704836 C54.9214739,13.2988053 54.625916,13.9913246 54.611672,14.8480624 L54.611672,14.9123174 L60.6154736,14.9123174 Z M67.2308724,21.3164004 C67.1169207,21.4306321 66.981605,21.4877471 66.8249214,21.4877471 L66.0343852,21.4877471 C65.8777016,21.4877471 65.742386,21.4306321 65.6284342,21.3164004 C65.5144825,21.2021687 65.4575075,21.0665206 65.4575075,20.909452 L65.4575075,6.85902239 C65.4575075,6.7019538 65.5144825,6.56630568 65.6284342,6.45207398 C65.742386,6.33784227 65.8777016,6.28072727 66.0343852,6.28072727 L66.8249214,6.28072727 C66.981605,6.28072727 67.1169207,6.33784227 67.2308724,6.45207398 C67.3448241,6.56630568 67.4017991,6.7019538 67.4017991,6.85902239 L67.4017991,20.909452 C67.4017991,21.0665206 67.3448241,21.2021687 67.2308724,21.3164004 Z M78.9313415,11.592475 C79.8144674,12.5634445 80.2560237,13.8842288 80.2560237,15.5548675 L80.2560237,16.1331627 C80.2560237,16.2902313 80.1990487,16.4258794 80.085097,16.5401111 C79.9711453,16.6543428 79.8358296,16.7114578 79.679146,16.7114578 L72.3292964,16.7114578 L72.3292964,16.8399678 C72.3577843,17.7823794 72.6462203,18.5213046 73.194613,19.0567658 C73.7430057,19.5922269 74.4516323,19.8599534 75.3205143,19.8599534 C76.0327126,19.8599534 76.5846579,19.7671416 76.976367,19.581515 C77.3680761,19.3958885 77.7206089,19.1317317 78.0339762,18.7890365 C78.1479279,18.6748048 78.2511951,18.5962717 78.3437809,18.5534348 C78.4363667,18.5105979 78.5609995,18.4891798 78.7176831,18.4891798 L79.3586584,18.4891798 C79.529586,18.4891798 79.6720235,18.5462948 79.7859752,18.6605265 C79.8999269,18.7747582 79.9497801,18.9104063 79.9355361,19.0674749 C79.8785602,19.4530069 79.6684649,19.8492422 79.3052438,20.2561927 C78.9420226,20.6631431 78.4221257,21.0058331 77.7455373,21.2842729 C77.0689489,21.5627127 76.260616,21.7019305 75.3205143,21.7019305 C74.4089005,21.7019305 73.5970066,21.4913189 72.8848083,21.0700895 C72.17261,20.6488601 71.6064209,20.0670011 71.1862239,19.324495 C70.7660269,18.5819889 70.5132003,17.7466821 70.4277365,16.8185495 C70.3992485,16.3901806 70.3850048,16.0617693 70.3850048,15.8333059 C70.3850048,15.6048425 70.3992485,15.2764313 70.4277365,14.8480624 C70.5132003,13.9627667 70.7660269,13.1631567 71.1862239,12.4492086 C71.6064209,11.7352604 72.1690491,11.1712498 72.8741254,10.7571599 C73.5792017,10.3430699 74.3946565,10.1360281 75.3205143,10.1360281 C76.8446186,10.1360281 78.0482157,10.6215055 78.9313415,11.592475 Z M78.333098,14.9123174 L78.333098,14.8480624 C78.333098,13.9770456 78.0589057,13.2809566 77.5105131,12.7597745 C76.9621204,12.2385923 76.2321281,11.9780051 75.3205143,11.9780051 C74.4943642,11.9780051 73.7928595,12.242162 73.2159788,12.7704836 C72.6390982,13.2988053 72.3435404,13.9913246 72.3292964,14.8480624 L72.3292964,14.9123174 L78.333098,14.9123174 Z M92.8752241,21.3164004 C92.7612724,21.4306321 92.6259567,21.4877471 92.4692731,21.4877471 L91.6787369,21.4877471 C91.5220533,21.4877471 91.3867377,21.4306321 91.2727859,21.3164004 C91.1588342,21.2021687 91.1018592,21.0665206 91.1018592,20.909452 L91.1018592,15.2550108 C91.1018592,14.1840886 90.8383498,13.3701999 90.3113231,12.8133203 C89.7842963,12.2564407 89.0507431,11.9780051 88.1106414,11.9780051 C87.1847836,11.9780051 86.4547913,12.2564407 85.9206426,12.8133203 C85.3864938,13.3701999 85.1194235,14.1840886 85.1194235,15.2550108 L85.1194235,20.909452 C85.1194235,21.0665206 85.0624485,21.2021687 84.9484968,21.3164004 C84.834545,21.4306321 84.6992294,21.4877471 84.5425458,21.4877471 L83.7520096,21.4877471 C83.595326,21.4877471 83.4600103,21.4306321 83.3460586,21.3164004 C83.2321069,21.2021687 83.1751319,21.0665206 83.1751319,20.909452 L83.1751319,10.9285066 C83.1751319,10.771438 83.2321069,10.6357899 83.3460586,10.5215582 C83.4600103,10.4073265 83.595326,10.3502115 83.7520096,10.3502115 L84.5425458,10.3502115 C84.6992294,10.3502115 84.834545,10.4073265 84.9484968,10.5215582 C85.0624485,10.6357899 85.1194235,10.771438 85.1194235,10.9285066 L85.1194235,11.592475 C85.4327907,11.1783851 85.8636642,10.8321254 86.4120569,10.5536857 C86.9604496,10.2752459 87.6334669,10.1360281 88.431129,10.1360281 C89.3284988,10.1360281 90.1261489,10.3287912 90.8241033,10.7143232 C91.5220576,11.0998552 92.0668811,11.6531567 92.4585902,12.3742444 C92.8502992,13.095332 93.0461508,13.9484873 93.0461508,14.9337357 L93.0461508,20.909452 C93.0461508,21.0665206 92.9891758,21.2021687 92.8752241,21.3164004 Z M99.5867692,19.1531483 C99.8360386,19.4815644 100.309643,19.6457701 101.007598,19.6457701 L102.139987,19.6457701 C102.296671,19.6457701 102.431987,19.7028851 102.545938,19.8171168 C102.65989,19.9313485 102.716865,20.0669966 102.716865,20.2240652 L102.716865,20.909452 C102.716865,21.0665206 102.65989,21.2021687 102.545938,21.3164004 C102.431987,21.4306321 102.296671,21.4877471 102.139987,21.4877471 L100.793939,21.4877471 C99.5832021,21.4877471 98.6929676,21.1700449 98.123209,20.5346311 C97.5534504,19.8992172 97.2685753,18.9675288 97.2685753,17.739538 L97.2685753,12.1921885 L95.687503,12.1921885 C95.5308194,12.1921885 95.3955038,12.1350735 95.281552,12.0208418 C95.1676003,11.9066101 95.1106253,11.770962 95.1106253,11.6138934 L95.1106253,10.9285066 C95.1106253,10.771438 95.1676003,10.6357899 95.281552,10.5215582 C95.3955038,10.4073265 95.5308194,10.3502115 95.687503,10.3502115 L97.2685753,10.3502115 L97.2685753,6.85902239 C97.2685753,6.7019538 97.3255503,6.56630568 97.4395021,6.45207398 C97.5534538,6.33784227 97.6887694,6.28072727 97.8454531,6.28072727 L98.6359892,6.28072727 C98.7926728,6.28072727 98.9279885,6.33784227 99.0419402,6.45207398 C99.1558919,6.56630568 99.2128669,6.7019538 99.2128669,6.85902239 L99.2128669,10.3502115 L101.926329,10.3502115 C102.083012,10.3502115 102.218328,10.4073265 102.33228,10.5215582 C102.446232,10.6357899 102.503207,10.771438 102.503207,10.9285066 L102.503207,11.6138934 C102.503207,11.770962 102.446232,11.9066101 102.33228,12.0208418 C102.218328,12.1350735 102.083012,12.1921885 101.926329,12.1921885 L99.2128669,12.1921885 L99.2128669,17.739538 C99.2128669,18.3535334 99.3374998,18.8247321 99.5867692,19.1531483 Z M107.174314,8.48681607 C107.060362,8.60104777 106.925046,8.65816277 106.768363,8.65816277 L105.55051,8.65816277 C105.393826,8.65816277 105.258511,8.60104777 105.144559,8.48681607 C105.030607,8.37258436 104.973632,8.23693624 104.973632,8.07986765 L104.973632,6.85902239 C104.973632,6.7019538 105.030607,6.56630568 105.144559,6.45207398 C105.258511,6.33784227 105.393826,6.28072727 105.55051,6.28072727 L106.768363,6.28072727 C106.925046,6.28072727 107.060362,6.33784227 107.174314,6.45207398 C107.288265,6.56630568 107.34524,6.7019538 107.34524,6.85902239 L107.34524,8.07986765 C107.34524,8.23693624 107.288265,8.37258436 107.174314,8.48681607 Z M106.960655,21.3164004 C106.846704,21.4306321 106.711388,21.4877471 106.554704,21.4877471 L105.764168,21.4877471 C105.607485,21.4877471 105.472169,21.4306321 105.358217,21.3164004 C105.244265,21.2021687 105.18729,21.0665206 105.18729,20.909452 L105.18729,10.9285066 C105.18729,10.771438 105.244265,10.6357899 105.358217,10.5215582 C105.472169,10.4073265 105.607485,10.3502115 105.764168,10.3502115 L106.554704,10.3502115 C106.711388,10.3502115 106.846704,10.4073265 106.960655,10.5215582 C107.074607,10.6357899 107.131582,10.771438 107.131582,10.9285066 L107.131582,20.909452 C107.131582,21.0665206 107.074607,21.2021687 106.960655,21.3164004 Z M117.272345,14.441114 L117.272345,14.1626756 C117.272345,13.4630064 117.040884,12.9239836 116.577955,12.5455911 C116.115026,12.1671986 115.513227,11.9780051 114.772541,11.9780051 C114.202783,11.9780051 113.757665,12.0743867 113.437176,12.2671527 C113.116687,12.4599187 112.814007,12.7490634 112.529128,13.1345954 C112.443664,13.2488271 112.35108,13.3273602 112.251372,13.3701971 C112.151664,13.413034 112.016349,13.4344521 111.845421,13.4344521 L111.204446,13.4344521 C111.047762,13.4344521 110.908885,13.3773371 110.787812,13.2631054 C110.666738,13.1488737 110.613324,13.0132256 110.627568,12.856157 C110.6703,12.4277881 110.880395,12.0029953 111.25786,11.5817659 C111.635325,11.1605365 112.137418,10.8142768 112.764152,10.5429765 C113.390887,10.2716762 114.060343,10.1360281 114.772541,10.1360281 C116.09723,10.1360281 117.169072,10.5072756 117.9881,11.2497816 C118.807129,11.9922877 119.216636,13.0346364 119.216636,14.376859 L119.216636,20.909452 C119.216636,21.0665206 119.159661,21.2021687 119.04571,21.3164004 C118.931758,21.4306321 118.796442,21.4877471 118.639759,21.4877471 L117.849223,21.4877471 C117.692539,21.4877471 117.557223,21.4306321 117.443272,21.3164004 C117.32932,21.2021687 117.272345,21.0665206 117.272345,20.909452 L117.272345,20.0313001 C117.044441,20.5453428 116.560154,20.9522872 115.819468,21.2521454 C115.078781,21.5520036 114.338106,21.7019305 113.59742,21.7019305 C112.870978,21.7019305 112.222887,21.5698521 111.653128,21.3056912 C111.08337,21.0415304 110.645374,20.680992 110.339129,20.2240652 C110.032884,19.7671384 109.879763,19.2531034 109.879763,18.6819449 C109.879763,17.6110226 110.278589,16.7721461 111.076251,16.1652902 C111.873913,15.5584342 112.935072,15.1479202 114.259761,14.9337357 L117.272345,14.441114 Z M117.272345,16.154581 L114.751175,16.5615294 C113.825318,16.704319 113.106008,16.9363487 112.593225,17.2576254 C112.080443,17.5789021 111.824055,17.9822767 111.824055,18.4677615 C111.824055,18.8247356 111.987858,19.1460074 112.315469,19.4315867 C112.643081,19.7171659 113.141612,19.8599534 113.811078,19.8599534 C114.836644,19.8599534 115.669903,19.5672391 116.310882,18.9818016 C116.95186,18.3963641 117.272345,17.632451 117.272345,16.6900394 L117.272345,16.154581 Z M124.443255,21.3164004 C124.329304,21.4306321 124.193988,21.4877471 124.037304,21.4877471 L123.246768,21.4877471 C123.090085,21.4877471 122.954769,21.4306321 122.840817,21.3164004 C122.726866,21.2021687 122.669891,21.0665206 122.669891,20.909452 L122.669891,6.85902239 C122.669891,6.7019538 122.726866,6.56630568 122.840817,6.45207398 C122.954769,6.33784227 123.090085,6.28072727 123.246768,6.28072727 L124.037304,6.28072727 C124.193988,6.28072727 124.329304,6.33784227 124.443255,6.45207398 C124.557207,6.56630568 124.614182,6.7019538 124.614182,6.85902239 L124.614182,20.909452 C124.614182,21.0665206 124.557207,21.2021687 124.443255,21.3164004 Z M130.31085,19.0674749 C130.424801,19.1817066 130.481777,19.3173548 130.481777,19.4744234 L130.481777,20.909452 C130.481777,21.0665206 130.424801,21.2021687 130.31085,21.3164004 C130.196898,21.4306321 130.061582,21.4877471 129.904899,21.4877471 L128.473387,21.4877471 C128.316704,21.4877471 128.181388,21.4306321 128.067436,21.3164004 C127.953485,21.2021687 127.89651,21.0665206 127.89651,20.909452 L127.89651,19.4744234 C127.89651,19.3173548 127.953485,19.1817066 128.067436,19.0674749 C128.181388,18.9532432 128.316704,18.8961282 128.473387,18.8961282 L129.904899,18.8961282 C130.061582,18.8961282 130.196898,18.9532432 130.31085,19.0674749 Z M140.366149,14.441114 L140.366149,14.1626756 C140.366149,13.4630064 140.134688,12.9239836 139.671759,12.5455911 C139.20883,12.1671986 138.607032,11.9780051 137.866346,11.9780051 C137.296587,11.9780051 136.85147,12.0743867 136.53098,12.2671527 C136.210491,12.4599187 135.907812,12.7490634 135.622932,13.1345954 C135.537468,13.2488271 135.444884,13.3273602 135.345176,13.3701971 C135.245469,13.413034 135.110153,13.4344521 134.939225,13.4344521 L134.29825,13.4344521 C134.141566,13.4344521 134.00269,13.3773371 133.881616,13.2631054 C133.760542,13.1488737 133.707128,13.0132256 133.721372,12.856157 C133.764104,12.4277881 133.9742,12.0029953 134.351665,11.5817659 C134.72913,11.1605365 135.231222,10.8142768 135.857956,10.5429765 C136.484691,10.2716762 137.154147,10.1360281 137.866346,10.1360281 C139.191034,10.1360281 140.262877,10.5072756 141.081905,11.2497816 C141.900933,11.9922877 142.310441,13.0346364 142.310441,14.376859 L142.310441,20.909452 C142.310441,21.0665206 142.253466,21.2021687 142.139514,21.3164004 C142.025562,21.4306321 141.890247,21.4877471 141.733563,21.4877471 L140.943027,21.4877471 C140.786343,21.4877471 140.651028,21.4306321 140.537076,21.3164004 C140.423124,21.2021687 140.366149,21.0665206 140.366149,20.909452 L140.366149,20.0313001 C140.138246,20.5453428 139.653958,20.9522872 138.913272,21.2521454 C138.172586,21.5520036 137.431911,21.7019305 136.691224,21.7019305 C135.964782,21.7019305 135.316691,21.5698521 134.746933,21.3056912 C134.177174,21.0415304 133.739179,20.680992 133.432933,20.2240652 C133.126688,19.7671384 132.973568,19.2531034 132.973568,18.6819449 C132.973568,17.6110226 133.372393,16.7721461 134.170055,16.1652902 C134.967717,15.5584342 136.028877,15.1479202 137.353565,14.9337357 L140.366149,14.441114 Z M140.366149,16.154581 L137.84498,16.5615294 C136.919122,16.704319 136.199813,16.9363487 135.68703,17.2576254 C135.174247,17.5789021 134.917859,17.9822767 134.917859,18.4677615 C134.917859,18.8247356 135.081663,19.1460074 135.409274,19.4315867 C135.736885,19.7171659 136.235416,19.8599534 136.904883,19.8599534 C137.930448,19.8599534 138.763708,19.5672391 139.404686,18.9818016 C140.045665,18.3963641 140.366149,17.632451 140.366149,16.6900394 L140.366149,16.154581 Z M147.750718,8.48681607 C147.636766,8.60104777 147.501451,8.65816277 147.344767,8.65816277 L146.126914,8.65816277 C145.970231,8.65816277 145.834915,8.60104777 145.720963,8.48681607 C145.607011,8.37258436 145.550036,8.23693624 145.550036,8.07986765 L145.550036,6.85902239 C145.550036,6.7019538 145.607011,6.56630568 145.720963,6.45207398 C145.834915,6.33784227 145.970231,6.28072727 146.126914,6.28072727 L147.344767,6.28072727 C147.501451,6.28072727 147.636766,6.33784227 147.750718,6.45207398 C147.86467,6.56630568 147.921645,6.7019538 147.921645,6.85902239 L147.921645,8.07986765 C147.921645,8.23693624 147.86467,8.37258436 147.750718,8.48681607 Z M147.53706,21.3164004 C147.423108,21.4306321 147.287792,21.4877471 147.131109,21.4877471 L146.340573,21.4877471 C146.183889,21.4877471 146.048573,21.4306321 145.934622,21.3164004 C145.82067,21.2021687 145.763695,21.0665206 145.763695,20.909452 L145.763695,10.9285066 C145.763695,10.771438 145.82067,10.6357899 145.934622,10.5215582 C146.048573,10.4073265 146.183889,10.3502115 146.340573,10.3502115 L147.131109,10.3502115 C147.287792,10.3502115 147.423108,10.4073265 147.53706,10.5215582 C147.651012,10.6357899 147.707987,10.771438 147.707987,10.9285066 L147.707987,20.909452 C147.707987,21.0665206 147.651012,21.2021687 147.53706,21.3164004 Z" id="celential.ai" fill="#23B1D2"></path>
                    <g id="Group-Copy-4" stroke="#23B1D2" stroke-width="6.98181818">
                        <use id="Oval-7" mask="url(#mask-2)" opacity="0.200000003" xlink:href="#path-1"></use>
                        <use id="Oval-7-Copy-2" mask="url(#mask-4)" opacity="0.5" transform="translate(15.794330, 15.833137) rotate(-315.000000) translate(-15.794330, -15.833137) " xlink:href="#path-3"></use>
                        <use id="Oval-7-Copy" mask="url(#mask-6)" xlink:href="#path-5"></use>
                    </g>
                </g>
            </g>
        </g>
    </g>
</svg>